<svg xmlns="http://www.w3.org/2000/svg" viewBox="0 0 1487 1163" shape-rendering="geometricPrecision" text-rendering="geometricPrecision" image-rendering="optimizeQuality" fill="#fff" fill-rule="evenodd" clip-rule="evenodd"><path fill-rule="nonzero" d="M187 1150l-47 13v-136l-43 12v-39l133-36v39l-43 11v136zm174-48V928l48-13v174l-48 13zm270-213c-11 4-20 11-26 21-6 11-10 25-10 41 0 34 13 47 39 40 8-2 15-5 22-9 7-5 15-9 22-14v40c-14 10-31 18-49 23-27 7-47 5-61-6-14-12-21-32-21-61 0-18 3-35 10-50 7-16 17-29 30-40 12-11 27-19 45-23 19-6 37-6 54-3l-15 41c-6-1-13-2-19-2-6-1-13 0-21 2zm337 46l-53 15-35-58-14 13v58l-47 13V801l47-13v76l15-26 36-64 52-14-55 93 54 82zm229-63l-103 28V726l103-29v38l-56 16v27l52-14v37l-52 15v33l56-16v39zm215-59l-47 13V690l-43 11v-38l132-37v39l-42 12v136z"/><path d="M490 339c18 21 32 46 41 74l-1-202 168-50v73c10-22 24-42 40-61 67-72 161-83 211-24 14 17 23 37 27 60l1-1v4c2 16 2 33 0 50v11c18-57 49-112 93-160 120-131 291-151 380-44 16 19 28 40 37 64l-283 289-6 6c96 11 205-60 249-142v193c-66 74-156 115-263 133-65 5-127-17-170-68-14-18-26-37-34-58l1 172-170 52V366c-1-10-5-19-11-26-18-22-53-18-77 9-14 15-22 34-23 52l2 337-170 47-1-191c-16 62-49 124-97 175-120 132-290 151-380 44-90-106-65-299 55-430 121-132 291-151 381-44zm640-10c-9-40 5-91 39-128 37-40 86-53 122-36l-161 164zM349 492c32 38 23 106-19 153-43 46-104 53-135 15-32-38-23-106 19-153 43-46 103-53 135-15z"/></svg>